<svg xmlns="http://www.w3.org/2000/svg" width="256" height="256" viewBox="0 0 100 100"><rect width="100" height="100" rx="50" fill="#000000"></rect><path d="M24.46 30.09L17.57 69.91L26.84 69.91Q29.68 69.91 32.21 69.22Q34.74 68.54 36.88 67.28L36.88 67.28Q38.79 66.16 40.47 64.52Q42.15 62.88 43.41 60.91L43.41 60.91Q44.70 58.89 45.57 56.49Q46.45 54.10 46.86 51.48L46.86 51.48L47.27 48.55Q47.57 46.23 47.40 44.05Q47.24 41.88 46.66 39.94L46.66 39.94Q46.04 37.89 44.89 36.12Q43.74 34.36 42.13 33.13L42.13 33.13Q40.40 31.76 38.15 30.97Q35.89 30.18 33.10 30.12L33.10 30.12L24.46 30.09ZM23.31 65.78L28.78 34.25L33.02 34.28Q35.07 34.36 36.63 34.97Q38.19 35.59 39.31 36.60L39.31 36.60Q40.32 37.56 41.02 38.80Q41.71 40.05 42.04 41.44L42.04 41.44Q42.48 43.05 42.54 44.85Q42.59 46.64 42.34 48.47L42.34 48.47L41.91 51.48Q41.58 53.42 40.95 55.24Q40.32 57.05 39.42 58.61L39.42 58.61Q38.49 60.17 37.24 61.50Q36 62.82 34.47 63.73L34.47 63.73Q32.91 64.71 31.02 65.24Q29.14 65.78 26.95 65.80L26.95 65.80L23.31 65.78ZM65.97 49.95L63.15 30.09L57.16 30.09L50.25 69.91L55.06 69.91L57.77 54.27L60.25 37.72L63.18 58.83L66.05 58.83L76.69 37.86L73.52 53.77L70.73 69.91L75.54 69.91L82.43 30.09L76.20 30.09L65.97 49.95Z" fill="#fff"></path></svg>